<svg width="22" height="22" viewBox="0 0 22 22" fill="none" xmlns="http://www.w3.org/2000/svg">
<rect width="22" height="22" rx="11" fill="#475467"/>
<g clip-path="url(#clip0_136_3706)">
<path d="M17.8156 3H4.18125C3.52812 3 3 3.51563 3 4.15313V17.8438C3 18.4813 3.52812 19 4.18125 19H17.8156C18.4688 19 19 18.4813 19 17.8469V4.15313C19 3.51563 18.4688 3 17.8156 3ZM7.74687 16.6344H5.37188V8.99687H7.74687V16.6344ZM6.55938 7.95625C5.79688 7.95625 5.18125 7.34062 5.18125 6.58125C5.18125 5.82188 5.79688 5.20625 6.55938 5.20625C7.31875 5.20625 7.93437 5.82188 7.93437 6.58125C7.93437 7.3375 7.31875 7.95625 6.55938 7.95625ZM16.6344 16.6344H14.2625V12.9219C14.2625 12.0375 14.2469 10.8969 13.0281 10.8969C11.7937 10.8969 11.6062 11.8625 11.6062 12.8594V16.6344H9.2375V8.99687H11.5125V10.0406H11.5437C11.8594 9.44063 12.6344 8.80625 13.7875 8.80625C16.1906 8.80625 16.6344 10.3875 16.6344 12.4438V16.6344V16.6344Z" fill="white"/>
</g>
<defs>
<clipPath id="clip0_136_3706">
<rect width="16" height="16" fill="white" transform="translate(3 3)"/>
</clipPath>
</defs>
</svg>
