<svg width="22" height="22" viewBox="0 0 22 22" fill="none" xmlns="http://www.w3.org/2000/svg">
<rect width="22" height="22" fill="#1877F2"/>
<g clip-path="url(#clip0_136_3709)">
<path d="M20 11C20 6.02943 15.9706 2 11 2C6.02943 2 2 6.02943 2 11C2 15.4921 5.29115 19.2155 9.59375 19.8907V13.6016H7.30859V11H9.59375V9.01719C9.59375 6.76156 10.9374 5.51562 12.9932 5.51562C13.9776 5.51562 15.0078 5.69141 15.0078 5.69141V7.90625H13.873C12.755 7.90625 12.4062 8.60006 12.4062 9.3125V11H14.9023L14.5033 13.6016H12.4062V19.8907C16.7088 19.2155 20 15.4921 20 11Z" fill="#1877F2"/>
<path d="M14.5033 13.6016L14.9023 11H12.4062V9.3125C12.4062 8.60076 12.755 7.90625 13.873 7.90625H15.0078V5.69141C15.0078 5.69141 13.9779 5.51562 12.9932 5.51562C10.9374 5.51562 9.59375 6.76156 9.59375 9.01719V11H7.30859V13.6016H9.59375V19.8907C10.5256 20.0364 11.4744 20.0364 12.4062 19.8907V13.6016H14.5033Z" fill="white"/>
</g>
<defs>
<clipPath id="clip0_136_3709">
<rect width="18" height="18" fill="white" transform="translate(2 2)"/>
</clipPath>
</defs>
</svg>
