<svg width="22" height="22" viewBox="0 0 22 22" fill="none" xmlns="http://www.w3.org/2000/svg">
<rect width="22" height="22" fill="#FF0302"/>
<path d="M19.8207 7.4001C19.8207 7.4001 19.6449 6.15908 19.1035 5.61416C18.418 4.89697 17.6516 4.89346 17.3 4.85127C14.7828 4.66846 11.0035 4.66846 11.0035 4.66846H10.9965C10.9965 4.66846 7.21719 4.66846 4.7 4.85127C4.34844 4.89346 3.58203 4.89697 2.89648 5.61416C2.35508 6.15908 2.18281 7.4001 2.18281 7.4001C2.18281 7.4001 2 8.85908 2 10.3146V11.6786C2 13.1341 2.1793 14.5931 2.1793 14.5931C2.1793 14.5931 2.35508 15.8341 2.89297 16.379C3.57852 17.0962 4.47852 17.0716 4.8793 17.1489C6.3207 17.286 11 17.3282 11 17.3282C11 17.3282 14.7828 17.3212 17.3 17.1419C17.6516 17.0997 18.418 17.0962 19.1035 16.379C19.6449 15.8341 19.8207 14.5931 19.8207 14.5931C19.8207 14.5931 20 13.1376 20 11.6786V10.3146C20 8.85908 19.8207 7.4001 19.8207 7.4001ZM9.14023 13.3345V8.27549L14.0023 10.8138L9.14023 13.3345Z" fill="white"/>
</svg>
