<svg width="22" height="22" viewBox="0 0 22 22" fill="none" xmlns="http://www.w3.org/2000/svg">
<rect width="22" height="22" rx="11" fill="#475467"/>
<path fill-rule="evenodd" clip-rule="evenodd" d="M11 18.2471C15.2104 18.2471 18.6235 14.8339 18.6235 10.6235C18.6235 6.41317 15.2104 3 11 3C6.78964 3 3.37646 6.41317 3.37646 10.6235C3.37646 11.9908 3.7364 13.274 4.36669 14.3836L3.37646 18.2471L7.35969 17.3234C8.44142 17.9124 9.68163 18.2471 11 18.2471ZM11 17.0742C14.5626 17.0742 17.4507 14.1861 17.4507 10.6235C17.4507 7.06092 14.5626 4.17285 11 4.17285C7.43739 4.17285 4.54932 7.06092 4.54932 10.6235C4.54932 11.9991 4.97986 13.2741 5.71354 14.3211L5.13574 16.4878L7.34066 15.9366C8.38042 16.6541 9.64114 17.0742 11 17.0742Z" fill="white"/>
<path fill-rule="evenodd" clip-rule="evenodd" d="M10.9999 17.1578C14.6088 17.1578 17.5344 14.2322 17.5344 10.6233C17.5344 7.01444 14.6088 4.08887 10.9999 4.08887C7.39103 4.08887 4.46545 7.01444 4.46545 10.6233C4.46545 12.0167 4.90159 13.3083 5.64479 14.3689L5.0595 16.5637L7.29305 16.0054C8.34632 16.7322 9.62341 17.1578 10.9999 17.1578ZM8.41749 6.752C8.67632 6.74976 8.92666 6.7476 9.09424 7.08421C9.23925 7.37546 9.41756 7.87549 9.62804 8.47282C9.62894 8.47537 9.62985 8.47796 9.63077 8.48057C9.67992 8.61989 9.75665 8.83741 9.6558 8.98158C9.55306 9.12846 9.32397 9.42402 9.15806 9.61546C9.11556 9.66449 9.03039 9.77671 9.14645 9.9596C9.17531 10.0051 9.20021 10.0517 9.22765 10.103C9.33818 10.3097 9.48988 10.5935 10.1068 11.1915C10.7294 11.7951 11.5106 12.1426 11.7987 12.2582C11.877 12.3026 12.0651 12.362 12.1913 12.2446C12.2493 12.1905 12.3586 12.0509 12.4779 11.8986C12.6179 11.7198 12.7716 11.5234 12.872 11.4278C12.875 11.425 12.8781 11.4222 12.8813 11.4192C12.9485 11.3577 13.0549 11.2601 13.2506 11.3384C13.4219 11.407 14.0793 11.7234 14.5759 11.9623C14.6735 12.0093 14.765 12.0533 14.8452 12.0919C14.9242 12.1169 15.0388 12.209 15.0388 12.3937C15.0388 12.8103 14.7438 14.044 13.3102 14.0696C11.8765 14.0951 10.1496 13.3453 8.83526 11.8959C7.47339 10.394 7.06923 9.38999 7.06923 8.47281C7.06923 7.35369 7.85201 6.75237 8.35403 6.75237C8.37521 6.75237 8.39638 6.75219 8.41749 6.752Z" fill="white"/>
</svg>
